<svg width="34" height="34" viewBox="0 0 34 34" fill="none" xmlns="http://www.w3.org/2000/svg">
<g id="fxemoji:leftmagnifyingglass">
<path id="Vector" d="M4.56742 5.259C8.79922 1.2623 15.6603 1.2623 19.8921 5.259C23.7647 8.91652 24.0926 14.6534 20.8771 18.6638L22.545 20.2391L20.4287 22.2379L18.7608 20.6626C14.5143 23.6994 8.44003 23.3898 4.56735 19.7323C0.335612 15.7355 0.335612 9.25569 4.56742 5.259Z" fill="#005189"/>
<path id="Vector_2" d="M12.23 20.8416C17.1105 20.8416 21.067 17.105 21.067 12.4956C21.067 7.88628 17.1105 4.14966 12.23 4.14966C7.3495 4.14966 3.39307 7.88628 3.39307 12.4956C3.39307 17.105 7.3495 20.8416 12.23 20.8416Z" fill="#70C4EA"/>
<path id="Vector_3" d="M6.27011 17.4533C9.72118 20.7126 15.3164 20.7126 18.7674 17.4533C19.7219 16.5519 20.4111 15.4952 20.8376 14.3696C20.489 15.8766 19.6969 17.3104 18.4563 18.482C15.0052 21.7414 9.40993 21.7414 5.95887 18.482C3.46226 16.1241 2.77309 12.7068 3.88872 9.7627C3.26755 12.4476 4.05965 15.3656 6.27011 17.4533Z" fill="#00A7E0"/>
<path id="Vector_4" d="M31.4999 30.6948C32.5148 29.7363 32.903 28.5345 32.3628 28.0242L22.9292 19.8444C22.3889 19.334 21.5027 19.336 20.4879 20.2945C19.473 21.253 19.471 22.09 20.0113 22.6002L28.6723 31.5096C29.2126 32.0199 30.4851 31.6533 31.4999 30.6948Z" fill="#1F356B"/>
<path id="Vector_5" d="M30.4693 26.383L26.9339 29.722L22.6689 25.3347L25.824 22.355L30.4693 26.383Z" fill="#5BC0A4"/>
</g>
</svg>
