<svg width="47" height="35" viewBox="0 0 47 35" fill="none" xmlns="http://www.w3.org/2000/svg">
<g id="logos:google-gmail" clip-path="url(#clip0_0_1525)">
<path id="Vector" d="M11.1895 34.7102V17.27L5.7808 12.3218L0.930664 9.57593V31.6324C0.930664 33.3354 2.3104 34.7102 4.0084 34.7102H11.1895Z" fill="#4285F4"/>
<path id="Vector_2" d="M35.8105 34.7102H42.9917C44.6948 34.7102 46.0694 33.3303 46.0694 31.6325V9.57617L40.5759 12.7213L35.8105 17.2701V34.7102Z" fill="#34A853"/>
<path id="Vector_3" d="M11.1896 17.27L10.4536 10.4556L11.1896 3.93359L23.5002 13.1666L35.8107 3.93359L36.634 10.1035L35.8107 17.27L23.5002 26.503L11.1896 17.27Z" fill="#EA4335"/>
<path id="Vector_4" d="M35.8105 3.93348V17.2699L46.0694 9.57584V5.47226C46.0694 1.66631 41.7248 -0.50335 38.6832 1.77916L35.8105 3.93348Z" fill="#FBBC04"/>
<path id="Vector_5" d="M0.930664 9.57593L5.64891 13.1147L11.1895 17.27V3.93357L8.31687 1.77924C5.26999 -0.503446 0.930664 1.66639 0.930664 5.47217V9.57575V9.57593Z" fill="#C5221F"/>
</g>
<defs>
<clipPath id="clip0_0_1525">
<rect width="45.1389" height="34.0305" fill="white" transform="translate(0.930664 0.847168)"/>
</clipPath>
</defs>
</svg>
