<svg width="37" height="37" viewBox="0 0 37 37" fill="none" xmlns="http://www.w3.org/2000/svg">
<g id="noto:laptop-computer">
<path id="Vector" d="M30.3125 7.47217H6.72973C6.18973 7.47217 5.75098 7.91092 5.75098 8.45092V24.6481C5.75098 25.1881 6.18973 25.6269 6.72973 25.6269H30.3125C30.8525 25.6269 31.2913 25.1881 31.2913 24.6481V8.45092C31.2913 7.91092 30.8554 7.47217 30.3125 7.47217Z" fill="#B7D5E5"/>
<path id="Vector_2" d="M29.9607 23.8999H7.08105L7.35105 9.19897H29.6907L29.9607 23.8999Z" fill="url(#paint0_radial_0_1080)"/>
<path id="Vector_3" d="M34.5567 35.3244H2.63483C2.51389 35.3244 2.40139 35.316 2.29733 35.2991C1.48733 35.1754 1.11326 34.1235 1.5942 33.4035L1.70389 33.2375H35.3386L35.4511 33.4063C35.9742 34.1882 35.4848 35.3075 34.5961 35.3216C34.5848 35.3244 34.5708 35.3244 34.5567 35.3244Z" fill="#2F7889"/>
<path id="Vector_4" d="M30.5487 25.9277H6.29368C5.9365 25.9277 5.57931 26.1443 5.37962 26.4874L1.44212 33.6537C1.27618 33.9012 1.43931 34.2499 1.72056 34.2499H35.3187C35.5999 34.2499 35.7631 33.9012 35.5971 33.6537L31.4599 26.4452C31.2631 26.1415 30.9059 25.9277 30.5487 25.9277Z" fill="#EEEEEE"/>
<path id="Vector_5" d="M24.7888 32.99H12.2563L13.0579 30.7456H24.0463L24.7888 32.99Z" fill="#B7D5E5"/>
<path id="Vector_6" opacity="0.57" d="M20.9442 27.1737L20.8683 26.5549H19.9008L19.9374 27.1737H20.9442ZM19.3833 27.1737L19.3439 26.5549H18.3736V27.1737H19.3833ZM26.828 27.1737L26.6002 26.5549H25.6833L25.8746 27.1737H26.828ZM25.3514 27.1737L25.1602 26.5549H24.2264L24.3783 27.1737H25.3514ZM23.8946 27.1737L23.7427 26.5549H22.7949L22.9102 27.1737H23.8946ZM29.2186 27.1737L28.9514 26.5549H27.0642L27.2949 27.1737H29.2186ZM22.328 27.1737L22.2127 26.5549H21.2536L21.3324 27.1737H22.328ZM9.99518 27.1737L10.1864 26.5549H9.26955L9.04174 27.1737H9.99518ZM14.7061 27.1737L14.7821 26.5549H13.823L13.7105 27.1737H14.7061ZM11.5674 27.1737L11.7192 26.5549H10.7855L10.5971 27.1737H11.5674ZM8.42299 27.1737L8.6508 26.5549H7.75643L7.48924 27.1737H8.42299ZM13.1367 27.1737L13.2521 26.5549H12.3042L12.1524 27.1737H13.1367ZM16.2727 27.1737L16.3121 26.5549H15.3446L15.2686 27.1737H16.2727ZM17.8392 27.1737V26.5549H16.8689L16.8296 27.1737H17.8392ZM24.0633 29.674H12.9764L12.7655 30.2927H24.3192L24.0633 29.674ZM29.2299 30.2927L28.8896 29.674H30.7289L30.9961 30.2927H29.2299ZM24.8986 30.2927L24.6652 29.674H26.4342L26.7042 30.2927H24.8986ZM27.3286 30.2927L27.0586 29.674H28.2708L28.5802 30.2927H27.3286ZM7.71986 30.2927L8.06018 29.674H6.2208L5.95361 30.2927H7.71986ZM12.0511 30.2927L12.2846 29.674H10.5155L10.2455 30.2927H12.0511ZM9.6183 30.2927L9.89111 29.674H8.67893L8.36674 30.2927H9.6183ZM8.85611 28.2059L9.08674 27.5899H7.2108L6.94361 28.2059H8.85611ZM28.0486 28.2059L27.8208 27.5899H29.6939L29.9611 28.2059H28.0486ZM27.5705 28.2059L27.3005 27.5899H26.2177L26.4483 28.2059H27.5705ZM24.7524 28.2059L24.5696 27.5899H25.6524L25.8717 28.2059H24.7524ZM23.0536 28.2059L22.9214 27.5899H24.0042L24.173 28.2059H23.0536ZM21.3549 28.2059L21.2761 27.5899H22.3561L22.4771 28.2059H21.3549ZM19.6589 28.2059L19.628 27.5899H20.7108L20.7783 28.2059H19.6589ZM17.9602 28.2059L17.9799 27.5899H19.0627L19.0795 28.2059H17.9602ZM16.2614 28.2059L16.3317 27.5899H17.4146L17.3836 28.2059H16.2614ZM14.5655 28.2059L14.6836 27.5899H15.7664L15.6849 28.2059H14.5655ZM12.8667 28.2059L13.0355 27.5899H14.1183L13.9861 28.2059H12.8667ZM11.168 28.2059L11.3874 27.5899H12.4702L12.2902 28.2059H11.168ZM9.47205 28.2059L9.73924 27.5899H10.8221L10.5914 28.2059H9.47205ZM8.8533 29.2493L9.08111 28.6306H6.62018L6.35299 29.2493H8.8533ZM27.4636 29.2493L27.2471 28.6306H26.0742L26.2542 29.2493H27.4636ZM24.3867 29.2493L24.2517 28.6306H25.4217L25.5961 29.2493H24.3867ZM22.5164 29.2493L22.4264 28.6306H23.5992L23.7258 29.2493H22.5164ZM20.6489 29.2493L20.6011 28.6306H21.7739L21.8583 29.2493H20.6489ZM18.7814 29.2493L18.7786 28.6306H19.9486L19.9908 29.2493H18.7814ZM16.9139 29.2493L16.9533 28.6306H18.1261L18.1233 29.2493H16.9139ZM15.0436 29.2493L15.128 28.6306H16.3008L16.253 29.2493H15.0436ZM13.1761 29.2493L13.3055 28.6306H14.4755L14.3855 29.2493H13.1761ZM11.3086 29.2493L11.4802 28.6306H12.653L12.518 29.2493H11.3086ZM9.4383 29.2493L9.65486 28.6306H10.8277L10.6505 29.2493H9.4383ZM27.9136 29.2493L27.683 28.6306H30.1439L30.4111 29.2493H27.9136Z" fill="#69A1BA"/>
<path id="Vector_7" d="M35.5804 33.6537L31.5473 26.4875C31.3476 26.1865 30.9904 25.97 30.6332 25.97C30.6332 25.97 30.9763 26.2793 31.0804 26.4284L34.6213 33.0631C34.7788 33.35 34.5707 33.6987 34.2445 33.6987H2.73884C2.4154 33.6987 2.20728 33.3528 2.35915 33.0687L5.72009 26.5493C5.81853 26.3806 6.24884 25.9897 6.24884 25.9897H6.12228C5.76509 25.9897 5.4079 26.2062 5.20821 26.5493L1.42259 33.6537C1.25665 33.9012 1.41978 34.25 1.70103 34.25H35.2992C35.5832 34.25 35.7463 33.9012 35.5804 33.6537Z" fill="#B7D5E5"/>
<path id="Vector_8" d="M7.8042 8.38062H11.5195" stroke="#EEEEEE" stroke-width="0.82575" stroke-miterlimit="10" stroke-linecap="round"/>
<path id="Vector_9" d="M31.2601 8.96834C31.2601 8.67584 30.976 8.65334 30.976 8.99928V24.693C30.976 25.0699 30.6695 25.3765 30.2926 25.3765H6.70978C6.33291 25.3765 6.02635 25.0699 6.02635 24.693V8.99928C6.02635 8.65334 5.74228 8.67584 5.74228 8.96834L5.4751 24.693C5.4751 25.3736 5.82385 25.9277 6.70978 25.9277H30.2926C31.0604 25.9277 31.5273 25.3736 31.5273 24.693L31.2601 8.96834Z" fill="#75A7BC"/>
</g>
<defs>
<radialGradient id="paint0_radial_0_1080" cx="0" cy="0" r="1" gradientUnits="userSpaceOnUse" gradientTransform="translate(14.1146 1.60577) scale(21.2245 23.0138)">
<stop stop-color="#2F7889"/>
<stop offset="1" stop-color="#424242"/>
</radialGradient>
</defs>
</svg>
