<svg width="37" height="36" viewBox="0 0 37 36" fill="none" xmlns="http://www.w3.org/2000/svg">
<g id="noto:briefcase">
<path id="Vector" d="M13.5332 7.66406H14.5991V9.92531H13.5332V7.66406ZM23.4698 7.66406H24.5357V9.92531H23.4698V7.66406Z" fill="#1B273D"/>
<path id="Vector_2" d="M33.5129 34.875H3.4726C2.40385 34.875 2.17604 33.5784 2.17604 33.5784C0.93291 24.6656 2.17604 11.4862 2.17604 11.4862C2.17604 10.3978 3.05916 9.51465 4.1476 9.51465H32.8323C33.9207 9.51465 34.8039 10.3978 34.8039 11.4862C34.8039 11.4862 36.0751 26.7018 34.8039 33.5784C34.8095 33.5784 34.4157 34.875 33.5129 34.875Z" fill="#1B273D"/>
<path id="Vector_3" d="M33.5129 34.875H3.4726C2.40385 34.875 2.17604 33.5784 2.17604 33.5784C0.93291 24.6656 2.17604 11.4862 2.17604 11.4862C2.17604 10.3978 3.05916 9.51465 4.1476 9.51465H32.8323C33.9207 9.51465 34.8039 10.3978 34.8039 11.4862C34.8039 11.4862 36.0751 26.7018 34.8039 33.5784C34.8095 33.5784 34.4157 34.875 33.5129 34.875Z" fill="#1B273D"/>
<path id="Vector_4" d="M34.5371 13.2159C34.3936 12.1809 34.6467 10.9209 33.7692 10.1643C33.4182 9.85018 32.9634 9.67689 32.4924 9.67774H4.49674C2.53361 9.72836 2.5083 11.6634 2.43799 13.2159H2.52799C2.54768 19.2909 3.42799 22.8909 18.5283 22.8909C34.4949 22.8909 34.5314 19.6931 34.5314 13.2159H34.5371Z" fill="#1B273D"/>
<path id="Vector_5" d="M4.15106 9.51465C1.83075 9.67777 2.61262 11.8715 2.53387 12.915C2.53387 12.915 3.01481 11.5762 4.07794 11.5762H33.072C34.1436 11.5762 34.512 12.915 34.512 12.915C34.4389 11.8771 35.2517 9.7509 32.8357 9.51465H4.15106Z" fill="#1B273D"/>
<path id="Vector_6" d="M34.7902 11.2191C34.7845 11.169 34.7761 11.1193 34.7649 11.0701C34.7621 11.0504 34.7537 11.0307 34.7508 11.011C34.7396 10.9632 34.7255 10.9154 34.7115 10.8704L34.6946 10.8198C34.6777 10.772 34.658 10.7241 34.6383 10.6763C34.6335 10.6633 34.6269 10.651 34.6187 10.6398C34.5962 10.5891 34.5708 10.5413 34.5427 10.4935L34.5258 10.4682C34.4956 10.4177 34.4628 10.3689 34.4274 10.322C34.4246 10.3163 34.419 10.3107 34.4162 10.3079C34.3768 10.2573 34.3374 10.2095 34.2952 10.1616L34.2896 10.156C34.2446 10.1082 34.1968 10.0604 34.1462 10.0154C34.2699 10.6538 34.3487 11.236 34.3487 11.6016V13.1429H34.928V13.0754L34.9196 12.9516L34.9027 12.7323L34.8943 12.6198C34.8887 12.5523 34.8858 12.4848 34.8802 12.4229L34.8718 12.302C34.869 12.2457 34.8633 12.1895 34.8605 12.1388C34.8577 12.1135 34.8577 12.0938 34.8549 12.0713C34.8521 12.0179 34.8465 11.9616 34.8437 11.9138C34.8408 11.8688 34.838 11.8323 34.8352 11.7929C34.8324 11.7732 34.8324 11.7507 34.8296 11.731C34.824 11.6495 34.8183 11.5932 34.8155 11.5538C34.8127 11.5145 34.8099 11.4863 34.8099 11.4863C34.8099 11.416 34.8071 11.3457 34.7987 11.2754L34.7902 11.2191ZM2.1624 11.6495C2.15959 11.6804 2.15678 11.7141 2.15396 11.7535C2.15049 11.7796 2.14861 11.8059 2.14834 11.8323C2.14553 11.8688 2.14271 11.9082 2.13709 11.9504C2.13709 11.9616 2.13428 11.9729 2.13428 11.9841V13.1429H2.71365V11.6016C2.71365 11.2248 2.80084 10.606 2.93303 9.93945C2.76146 10.0745 2.61521 10.2348 2.49709 10.4176C2.49146 10.426 2.48865 10.4316 2.48303 10.4401C2.45209 10.4907 2.42115 10.5413 2.39303 10.5948C2.38459 10.6116 2.37615 10.6285 2.37053 10.6426C2.34803 10.6876 2.32834 10.7354 2.31146 10.7832C2.30303 10.8029 2.29459 10.8254 2.28896 10.8451C2.27209 10.8901 2.26084 10.9379 2.24678 10.9829C2.24115 11.0054 2.23271 11.0279 2.2299 11.0532C2.21865 11.101 2.21021 11.1516 2.20459 11.2023C2.20178 11.2248 2.19615 11.2473 2.19334 11.267C2.1849 11.3401 2.17928 11.4104 2.17928 11.4863C2.17928 11.4863 2.17646 11.5285 2.16803 11.6073C2.16521 11.6185 2.16521 11.6354 2.1624 11.6495Z" fill="#A06841"/>
<path id="Vector_7" d="M34.5902 14.7122C34.5873 17.6793 34.1598 19.1447 32.402 20.565C30.3911 22.1906 26.0767 22.9162 18.4183 22.9162C11.207 22.9162 6.85047 22.1034 4.70734 20.3568C2.88203 18.8718 2.49391 17.3643 2.46859 14.7122H2.13672C2.19297 20.7309 3.34047 24.2859 18.5308 24.2859C34.6098 24.2859 34.922 21.1218 34.9277 14.7122H34.5902Z" fill="#1B273D"/>
<path id="Vector_8" d="M34.8969 13.0726C34.8266 12.077 34.7788 11.4863 34.7788 11.4863C34.7788 10.8985 34.52 10.3754 34.115 10.0126C34.2388 10.651 34.3175 11.2332 34.3175 11.5988V13.0951C34.3175 16.3154 34.3175 18.6441 32.4838 20.1263C30.4728 21.752 26.1585 22.4776 18.5 22.4776C11.2888 22.4776 6.93221 21.6648 4.78908 19.9182C2.83721 18.3291 2.68252 15.9048 2.68252 12.901V11.6016C2.68252 11.2248 2.76971 10.606 2.90189 9.93945C2.66679 10.1235 2.47672 10.3588 2.34612 10.6273C2.21551 10.8958 2.14781 11.1905 2.14814 11.4891C2.14814 11.4891 2.13127 11.6635 2.10596 11.9841V12.901C2.10596 19.2713 2.82877 23.057 18.5028 23.057C34.9166 23.057 34.8997 19.7579 34.8969 13.0726Z" fill="#FFB636"/>
<path id="Vector_9" d="M1.8418 30.3469C1.91211 31.1035 2.08086 32.8669 2.1793 33.5785C2.1793 33.5785 2.4043 34.875 3.47586 34.875H33.5162C34.419 34.875 34.8127 33.5785 34.8127 33.5785C34.9365 32.9119 35.1081 31.2666 35.1981 30.3863C35.1981 30.3863 34.7059 31.095 32.2646 31.6463C29.8262 32.1947 24.983 31.7954 19.9262 31.7897C13.1987 31.7813 6.13367 31.9979 4.24367 31.5197C2.64336 31.1175 1.8418 30.3469 1.8418 30.3469Z" fill="#1B273D"/>
<path id="Vector_10" d="M19.1303 7.27872C20.275 7.28716 21.3606 7.48403 22.224 7.77091C22.5278 7.87216 23.7821 8.65685 24.2265 8.56403C24.4628 8.50778 24.9746 8.31091 24.8537 7.66403C24.7187 6.93841 23.664 6.86247 22.854 6.56435C21.7093 6.14528 20.3903 5.99341 19.1303 5.99341C17.9181 5.99341 16.6609 6.13403 15.55 6.51091C14.7231 6.79216 13.1509 7.19435 13.314 7.95372C13.4687 8.68216 14.3068 8.61466 14.5121 8.51341C15.1084 8.22091 15.5837 7.97341 16.2503 7.73153C17.1081 7.41935 18.1571 7.2731 19.1303 7.27872Z" fill="#1B273D"/>
<path id="Vector_11" d="M19.0966 6.29441C21.6616 6.29441 22.7444 7.07066 23.335 7.4841C24.775 8.49098 24.8735 7.91723 24.8538 7.6641C24.7779 6.67129 23.7654 5.9316 22.9357 5.52941C21.7657 4.96129 20.4129 4.75879 19.1219 4.75879C17.8816 4.75879 16.5963 4.94723 15.4572 5.46191C14.6107 5.8416 13.1144 6.79504 13.2832 7.83285C13.4182 8.64848 14.4897 7.85535 14.6979 7.71754C15.311 7.32379 16.4304 6.29441 19.0966 6.29441Z" fill="#1B273D"/>
<path id="Vector_12" opacity="0.68" d="M13.6206 7.66417C13.3956 7.24792 13.8934 6.71917 14.11 6.53917C14.5431 6.18198 15.0325 5.87542 15.5528 5.66448C15.82 5.5576 16.599 5.39448 16.6384 5.81354C16.6778 6.23823 15.6062 6.6601 15.3362 6.79229C14.3743 7.26198 13.8343 8.06354 13.6206 7.66417Z" fill="white"/>
<path id="Vector_13" d="M20.2046 26.7383H16.7959C16.5765 26.7383 16.3965 26.5612 16.3965 26.339V24.1508C16.3965 23.9315 16.5737 23.7515 16.7959 23.7515H20.2018C20.4212 23.7515 20.6012 23.9287 20.6012 24.1508V26.339C20.6012 26.5612 20.424 26.7383 20.2046 26.7383Z" fill="#1B273D"/>
<path id="Vector_14" d="M20.4576 23.0652H16.5426C16.3767 23.0652 16.2417 22.9302 16.2417 22.7643V21.5802C16.2417 21.4143 16.3767 21.2793 16.5426 21.2793H20.4604C20.6264 21.2793 20.7614 21.4143 20.7614 21.5802V22.7643C20.7586 22.9302 20.6236 23.0652 20.4576 23.0652ZM20.2073 26.1702H16.7929C16.6354 26.1702 16.5061 26.0409 16.5061 25.8834V23.9793C16.5061 23.8218 16.6354 23.6924 16.7929 23.6924H20.2101C20.3676 23.6924 20.497 23.8218 20.497 23.9793V25.8834C20.4942 26.0409 20.3676 26.1702 20.2073 26.1702Z" fill="white"/>
<path id="Vector_15" d="M17.0289 22.1709C17.0289 22.8178 16.9305 22.8881 16.7167 22.8881C16.503 22.8881 16.4692 22.68 16.4692 22.1653C16.4692 21.6506 16.5058 21.4734 16.7336 21.4734C16.9614 21.4734 17.0289 21.524 17.0289 22.1709ZM17.3889 24.8793C17.3889 25.4981 17.4002 25.8637 17.1021 25.8637C16.8011 25.8637 16.773 25.515 16.773 24.8625C16.773 24.3928 16.773 24.0075 17.0852 24.0075C17.3946 24.0046 17.3889 24.2578 17.3889 24.8793Z" fill="#FFB636"/>
</g>
</svg>
