<svg width="44" height="43" viewBox="0 0 44 43" fill="none" xmlns="http://www.w3.org/2000/svg">
<g id="skill-icons:instagram" clip-path="url(#clip0_0_1536)">
<g id="Group">
<path id="Vector" d="M33.3194 0.333252H10.7782C5.28587 0.333252 0.833496 4.78563 0.833496 10.2779V32.8191C0.833496 38.3114 5.28587 42.7638 10.7782 42.7638H33.3194C38.8117 42.7638 43.2641 38.3114 43.2641 32.8191V10.2779C43.2641 4.78563 38.8117 0.333252 33.3194 0.333252Z" fill="url(#paint0_radial_0_1536)"/>
<path id="Vector_2" d="M33.3194 0.333252H10.7782C5.28587 0.333252 0.833496 4.78563 0.833496 10.2779V32.8191C0.833496 38.3114 5.28587 42.7638 10.7782 42.7638H33.3194C38.8117 42.7638 43.2641 38.3114 43.2641 32.8191V10.2779C43.2641 4.78563 38.8117 0.333252 33.3194 0.333252Z" fill="url(#paint1_radial_0_1536)"/>
<path id="Vector_3" d="M22.05 4.97412C17.5488 4.97412 16.9837 4.99384 15.2159 5.07423C13.4514 5.15511 12.2469 5.43439 11.1931 5.84428C10.1029 6.26759 9.17818 6.83394 8.25697 7.75548C7.33493 8.67685 6.76858 9.60154 6.34395 10.6913C5.9329 11.7454 5.65329 12.9504 5.5739 14.7141C5.49484 16.4821 5.47412 17.0473 5.47412 21.5487C5.47412 26.0502 5.49401 26.6134 5.57423 28.3812C5.65545 30.1457 5.93472 31.3502 6.34428 32.404C6.76792 33.4942 7.33427 34.4189 8.25581 35.3401C9.17685 36.2622 10.1015 36.8299 11.191 37.2532C12.2456 37.6631 13.4502 37.9423 15.2144 38.0232C16.9824 38.1036 17.5469 38.1233 22.0481 38.1233C26.5498 38.1233 27.113 38.1036 28.8809 38.0232C30.6454 37.9423 31.8512 37.6631 32.9058 37.2532C33.9956 36.8299 34.9189 36.2622 35.8398 35.3401C36.7618 34.4189 37.328 33.4942 37.7528 32.4045C38.1602 31.3502 38.44 30.1454 38.5229 28.3815C38.6023 26.6137 38.623 26.0502 38.623 21.5487C38.623 17.0473 38.6023 16.4824 38.5229 14.7144C38.44 12.9499 38.1602 11.7456 37.7528 10.6918C37.328 9.60154 36.7618 8.67685 35.8398 7.75548C34.9179 6.83361 33.9959 6.26726 32.9048 5.84444C31.8482 5.43439 30.6431 5.15495 28.8785 5.07423C27.1106 4.99384 26.5477 4.97412 22.0449 4.97412H22.05ZM20.5632 7.961C21.0045 7.96034 21.497 7.961 22.05 7.961C26.4756 7.961 27 7.97691 28.7476 8.0563C30.3636 8.13023 31.2407 8.40022 31.825 8.62713C32.5985 8.92746 33.15 9.28662 33.7297 9.86689C34.3098 10.447 34.6688 10.9994 34.97 11.773C35.1969 12.3564 35.4672 13.2335 35.5408 14.8495C35.6202 16.5968 35.6374 17.1215 35.6374 21.5449C35.6374 25.9683 35.6202 26.4932 35.5408 28.2403C35.4669 29.8563 35.1969 30.7334 34.97 31.317C34.6697 32.0906 34.3098 32.6413 33.7297 33.2211C33.1496 33.8012 32.5989 34.1602 31.825 34.4607C31.2414 34.6886 30.3636 34.9579 28.7476 35.0319C27.0003 35.1113 26.4756 35.1285 22.05 35.1285C17.6243 35.1285 17.0998 35.1113 15.3527 35.0319C13.7366 34.9573 12.8595 34.6873 12.2748 34.4604C11.5014 34.1599 10.9488 33.8009 10.3687 33.2208C9.78861 32.6407 9.42961 32.0896 9.12845 31.3157C8.90155 30.7321 8.63122 29.855 8.55763 28.239C8.47824 26.4917 8.46233 25.967 8.46233 21.5408C8.46233 17.1147 8.47824 16.5926 8.55763 14.8454C8.63155 13.2294 8.90155 12.3522 9.12845 11.768C9.42895 10.9945 9.78861 10.442 10.3689 9.86192C10.949 9.28182 11.5014 8.92265 12.2749 8.62166C12.8592 8.39376 13.7366 8.12442 15.3527 8.05017C16.8816 7.98105 17.4742 7.96034 20.5632 7.95686V7.961ZM30.8975 10.713C29.7994 10.713 28.9086 11.6031 28.9086 12.7013C28.9086 13.7993 29.7994 14.6902 30.8975 14.6902C31.9955 14.6902 32.8864 13.7993 32.8864 12.7013C32.8864 11.6032 31.9955 10.7124 30.8975 10.7124V10.713ZM22.05 13.0369C17.3495 13.0369 13.5384 16.848 13.5384 21.5487C13.5384 26.2494 17.3495 30.0587 22.05 30.0587C26.7507 30.0587 30.5605 26.2494 30.5605 21.5487C30.5605 16.8482 26.7504 13.0369 22.0497 13.0369H22.05ZM22.05 16.0238C25.1012 16.0238 27.575 18.4972 27.575 21.5487C27.575 24.5999 25.1012 27.0736 22.05 27.0736C18.9987 27.0736 16.5253 24.5999 16.5253 21.5487C16.5253 18.4972 18.9987 16.0238 22.05 16.0238Z" fill="white"/>
</g>
</g>
<defs>
<radialGradient id="paint0_radial_0_1536" cx="0" cy="0" r="1" gradientUnits="userSpaceOnUse" gradientTransform="translate(12.1041 46.0318) rotate(-90) scale(42.0518 39.1115)">
<stop stop-color="#FFDD55"/>
<stop offset="0.1" stop-color="#FFDD55"/>
<stop offset="0.5" stop-color="#FF543E"/>
<stop offset="1" stop-color="#C837AB"/>
</radialGradient>
<radialGradient id="paint1_radial_0_1536" cx="0" cy="0" r="1" gradientUnits="userSpaceOnUse" gradientTransform="translate(-6.27379 3.38974) rotate(78.681) scale(18.7974 77.4835)">
<stop stop-color="#3771C8"/>
<stop offset="0.128" stop-color="#3771C8"/>
<stop offset="1" stop-color="#6600FF" stop-opacity="0"/>
</radialGradient>
<clipPath id="clip0_0_1536">
<rect width="42.4306" height="42.4306" fill="white" transform="translate(0.833496 0.333252)"/>
</clipPath>
</defs>
</svg>
